<svg width="34" height="34" viewBox="0 0 34 34" fill="none" xmlns="http://www.w3.org/2000/svg">
<path d="M17.7054 3.00841C17.3458 2.8444 16.9552 2.75952 16.56 2.75952C16.1648 2.75952 15.7742 2.8444 15.4146 3.00841L3.588 8.39041C3.34312 8.49839 3.13492 8.67524 2.98876 8.89944C2.84259 9.12363 2.76477 9.38548 2.76477 9.65311C2.76477 9.92074 2.84259 10.1826 2.98876 10.4068C3.13492 10.631 3.34312 10.8078 3.588 10.9158L15.4284 16.3116C15.788 16.4756 16.1786 16.5605 16.5738 16.5605C16.969 16.5605 17.3596 16.4756 17.7192 16.3116L29.5596 10.9296C29.8045 10.8216 30.0127 10.6448 30.1589 10.4206C30.305 10.1964 30.3828 9.93455 30.3828 9.66691C30.3828 9.39928 30.305 9.13743 30.1589 8.91324C30.0127 8.68904 29.8045 8.51219 29.5596 8.40421L17.7054 3.00841Z" stroke="#2563EB" stroke-width="2.76" stroke-linecap="round" stroke-linejoin="round"/>
<path d="M2.75998 16.5601C2.75933 16.824 2.83439 17.0826 2.97625 17.3052C3.11812 17.5278 3.32084 17.705 3.56038 17.8159L15.4284 23.2117C15.7861 23.3736 16.1742 23.4574 16.5669 23.4574C16.9595 23.4574 17.3477 23.3736 17.7054 23.2117L29.5458 17.8297C29.7901 17.7199 29.9971 17.5414 30.1417 17.3159C30.2862 17.0905 30.3621 16.8279 30.36 16.5601" stroke="#2563EB" stroke-width="2.76" stroke-linecap="round" stroke-linejoin="round"/>
<path d="M2.75998 23.46C2.75933 23.7239 2.83439 23.9825 2.97625 24.2051C3.11812 24.4277 3.32084 24.6049 3.56038 24.7158L15.4284 30.1116C15.7861 30.2735 16.1742 30.3573 16.5669 30.3573C16.9595 30.3573 17.3477 30.2735 17.7054 30.1116L29.5458 24.7296C29.7901 24.6198 29.9971 24.4413 30.1417 24.2158C30.2862 23.9904 30.3621 23.7278 30.36 23.46" stroke="#2563EB" stroke-width="2.76" stroke-linecap="round" stroke-linejoin="round"/>
</svg>
