<svg width="34" height="34" viewBox="0 0 34 34" fill="none" xmlns="http://www.w3.org/2000/svg">
<path d="M24.84 28.9799C24.84 26.052 23.6769 23.2439 21.6065 21.1735C19.5361 19.1031 16.728 17.9399 13.8 17.9399C10.872 17.9399 8.06395 19.1031 5.99355 21.1735C3.92315 23.2439 2.76001 26.052 2.76001 28.9799" stroke="#7C3AED" stroke-width="2.76" stroke-linecap="round" stroke-linejoin="round"/>
<path d="M13.8 17.9399C17.6108 17.9399 20.7 14.8507 20.7 11.0399C20.7 7.22913 17.6108 4.13989 13.8 4.13989C9.98923 4.13989 6.89999 7.22913 6.89999 11.0399C6.89999 14.8507 9.98923 17.9399 13.8 17.9399Z" stroke="#7C3AED" stroke-width="2.76" stroke-linecap="round" stroke-linejoin="round"/>
<path d="M30.36 27.6C30.36 22.9494 27.6 18.63 24.84 16.56C25.7472 15.8793 26.4727 14.9855 26.9522 13.9576C27.4317 12.9298 27.6504 11.7996 27.589 10.6671C27.5276 9.53456 27.188 8.43464 26.6002 7.46465C26.0124 6.49467 25.1945 5.68454 24.219 5.10596" stroke="#7C3AED" stroke-width="2.76" stroke-linecap="round" stroke-linejoin="round"/>
</svg>
